<?xml version="1.0" encoding="utf-8"?>
<!-- Generator: Adobe Illustrator 16.0.3, SVG Export Plug-In . SVG Version: 6.00 Build 0)  -->
<!DOCTYPE svg PUBLIC "-//W3C//DTD SVG 1.0//EN" "http://www.w3.org/TR/2001/REC-SVG-20010904/DTD/svg10.dtd">
<svg version="1.0" id="Layer_1" xmlns="http://www.w3.org/2000/svg" xmlns:xlink="http://www.w3.org/1999/xlink" x="0px" y="0px"
	 width="256px" height="256px" viewBox="0 0 256 256" enable-background="new 0 0 256 256" xml:space="preserve">
<g>
	<rect y="54" fill="none" width="256" height="73"/>
	<path fill="#CCCCCC" d="M92.562,70.16c-1.531,0.375-2.727,0.359-3.586-0.047c-0.891-0.432-1.715-1.147-2.473-2.146
		c-0.586-0.786-1.115-1.59-1.588-2.412c-0.473-0.822-0.805-1.376-0.996-1.663s-0.338-0.495-0.439-0.625
		c-0.102-0.129-0.211-0.238-0.328-0.324c-0.203-0.142-0.539-0.212-1.008-0.212h-0.738v4.481c0,0.76,0.078,1.241,0.234,1.443
		c0.156,0.202,0.309,0.33,0.457,0.384s0.316,0.097,0.504,0.128c0.562,0.093,1.008,0.213,1.336,0.361l-0.023,0.609h-7.418
		l-0.023-0.609c0.328-0.18,0.674-0.297,1.037-0.352c0.363-0.054,0.613-0.107,0.75-0.158c0.137-0.051,0.252-0.15,0.346-0.298
		c0.188-0.297,0.281-0.906,0.281-1.828v-8.879c0-0.727-0.066-1.197-0.199-1.412s-0.264-0.361-0.393-0.439
		c-0.129-0.078-0.283-0.146-0.463-0.205s-0.383-0.121-0.609-0.188s-0.477-0.162-0.75-0.287l0.023-0.615h5.402
		c1.469,0,2.549,0.043,3.24,0.129s1.318,0.207,1.881,0.363s1.062,0.379,1.5,0.668c0.961,0.633,1.441,1.547,1.441,2.742
		c0,1.086-0.457,1.977-1.371,2.672c-0.773,0.578-1.738,0.949-2.895,1.113c0.352,0.477,0.705,0.965,1.061,1.465s0.709,1,1.061,1.5
		c0.852,1.188,1.461,1.998,1.828,2.432s0.629,0.721,0.785,0.861s0.332,0.262,0.527,0.363c0.422,0.219,0.957,0.328,1.605,0.328V70.16
		z M81.406,61.898c1.18,0,2.002-0.025,2.467-0.076c0.465-0.051,0.896-0.133,1.295-0.247s0.75-0.285,1.055-0.512
		c0.672-0.486,1.008-1.208,1.008-2.165c0-1.419-0.637-2.341-1.91-2.764c-0.688-0.228-1.371-0.341-2.051-0.341s-1.215,0-1.605,0
		h-0.258V61.898z"/>
	<path fill="#CCCCCC" d="M93.312,70.148c-0.016-0.062-0.023-0.133-0.023-0.211v-0.375c0.133-0.07,0.307-0.137,0.521-0.199
		s0.428-0.145,0.639-0.246c0.508-0.25,0.762-0.613,0.762-1.09v-6.234c-0.227-0.383-0.82-0.711-1.781-0.984l0.023-0.41l3.246-0.938
		l0.691-0.07v8.18c0,0.383,0.027,0.693,0.082,0.932s0.154,0.41,0.299,0.516s0.305,0.189,0.48,0.252s0.346,0.113,0.51,0.152
		s0.289,0.086,0.375,0.141v0.293c0,0.094-0.004,0.191-0.012,0.293H93.312z M94.789,55.382c0-0.367,0.098-0.652,0.293-0.855
		c0.32-0.336,0.676-0.504,1.066-0.504c0.375,0,0.66,0.098,0.855,0.293c0.336,0.336,0.504,0.691,0.504,1.066
		c0,0.391-0.098,0.68-0.293,0.867c-0.344,0.328-0.699,0.492-1.066,0.492c-0.383,0-0.668-0.094-0.855-0.281
		C94.957,56.125,94.789,55.765,94.789,55.382z"/>
	<path fill="#CCCCCC" d="M100.454,66.679c0.297-0.039,0.504-0.059,0.621-0.059c0.273,1.359,0.848,2.262,1.723,2.707
		c0.32,0.156,0.656,0.234,1.008,0.234s0.648-0.037,0.891-0.111s0.453-0.178,0.633-0.311c0.383-0.281,0.574-0.623,0.574-1.025
		s-0.102-0.721-0.305-0.955s-0.479-0.459-0.826-0.674s-0.754-0.438-1.219-0.668s-0.967-0.514-1.506-0.85
		c-1.18-0.742-1.77-1.688-1.77-2.836c0-0.898,0.336-1.602,1.008-2.109c0.633-0.484,1.453-0.727,2.461-0.727
		c1.195,0,2.258,0.285,3.188,0.855l0.07,2.602c-0.086,0.008-0.176,0.012-0.27,0.012h-0.281c-0.516-1.789-1.441-2.684-2.777-2.684
		c-0.477,0-0.861,0.117-1.154,0.352s-0.439,0.549-0.439,0.943s0.1,0.713,0.299,0.955s0.451,0.467,0.756,0.674
		s0.643,0.402,1.014,0.586s0.748,0.379,1.131,0.586s0.732,0.426,1.049,0.656s0.58,0.471,0.791,0.721
		c0.422,0.516,0.633,1.072,0.633,1.67s-0.094,1.084-0.281,1.459s-0.449,0.691-0.785,0.949c-0.664,0.5-1.555,0.75-2.672,0.75
		c-1.484,0-2.672-0.281-3.562-0.844V66.679z"/>
	<path fill="#CCCCCC" d="M117.914,67.886l0.34,0.328c-0.289,0.68-0.852,1.219-1.688,1.617c-0.766,0.367-1.541,0.551-2.326,0.551
		s-1.492-0.133-2.121-0.398s-1.174-0.641-1.635-1.125c-0.969-1.016-1.453-2.332-1.453-3.949c0-1.625,0.523-2.98,1.57-4.066
		c0.984-1.031,2.184-1.547,3.598-1.547c1.125,0,2.066,0.336,2.824,1.008c0.75,0.656,1.203,1.516,1.359,2.578
		c0.086,0.398,0.129,0.73,0.129,0.996v0.105h-7.406c-0.008,0.062-0.012,0.121-0.012,0.176s0,0.109,0,0.164
		c0,1.461,0.391,2.578,1.172,3.352c0.711,0.703,1.596,1.055,2.654,1.055S116.977,68.449,117.914,67.886z M116.191,62.997
		c-0.117-1.944-0.871-2.916-2.262-2.916c-0.758,0-1.383,0.31-1.875,0.928c-0.461,0.566-0.75,1.303-0.867,2.212h4.137
		C115.691,63.222,115.98,63.147,116.191,62.997z"/>
	<path fill="#CCCCCC" d="M124.741,64.804c0-1.625,0.547-2.961,1.641-4.008c1.055-1,2.332-1.5,3.832-1.5
		c1.602,0,2.926,0.492,3.973,1.477c1.102,1.031,1.652,2.371,1.652,4.02s-0.547,3.004-1.641,4.066
		c-1.039,1.016-2.324,1.523-3.855,1.523s-2.836-0.516-3.914-1.547C125.304,67.765,124.741,66.421,124.741,64.804z M127.319,62.296
		c-0.156,0.508-0.234,1.102-0.234,1.781s0.078,1.34,0.234,1.98s0.383,1.215,0.68,1.723c0.656,1.125,1.488,1.688,2.496,1.688
		c0.984,0,1.746-0.367,2.285-1.102c0.5-0.68,0.75-1.602,0.75-2.766c0-1.539-0.305-2.828-0.914-3.867
		c-0.633-1.102-1.457-1.652-2.473-1.652C128.714,60.082,127.772,60.82,127.319,62.296z"/>
	<path fill="#CCCCCC" d="M136.312,70.125c-0.016-0.219-0.023-0.414-0.023-0.586c0.109-0.062,0.25-0.107,0.422-0.135
		s0.344-0.061,0.516-0.1c0.43-0.094,0.68-0.262,0.75-0.504c0.164-0.312,0.246-0.711,0.246-1.195v-7.066h-1.852v-0.949h0.809
		c0.406,0,0.656-0.035,0.75-0.105c0.164-0.109,0.246-0.355,0.246-0.738c0.031-1.539,0.406-2.711,1.125-3.516s1.75-1.207,3.094-1.207
		c0.805,0,1.404,0.107,1.799,0.322s0.666,0.428,0.814,0.639s0.223,0.459,0.223,0.744s-0.096,0.529-0.287,0.732
		s-0.428,0.305-0.709,0.305s-0.49-0.047-0.627-0.141s-0.254-0.211-0.352-0.352s-0.186-0.293-0.264-0.457s-0.164-0.316-0.258-0.457
		c-0.219-0.328-0.477-0.492-0.773-0.492s-0.539,0.047-0.727,0.141s-0.344,0.262-0.469,0.504c-0.242,0.469-0.363,1.352-0.363,2.648
		v1.43h2.695v0.949h-2.695v6.551c0,0.789,0.086,1.363,0.258,1.723c0.086,0.281,0.59,0.477,1.512,0.586
		c0.211,0.031,0.395,0.078,0.551,0.141v0.281c0,0.094-0.004,0.195-0.012,0.305H136.312z"/>
	<path fill="#CCCCCC" d="M151.951,56.671c0.18,0,0.27,0.152,0.27,0.457v2.473h2.941v0.984h-2.918v5.871
		c0,1.133,0.061,1.82,0.182,2.062s0.285,0.404,0.492,0.486s0.549,0.123,1.025,0.123s0.973-0.086,1.488-0.258l0.094,0.855
		c-0.836,0.43-1.631,0.645-2.385,0.645s-1.312-0.068-1.676-0.205s-0.646-0.357-0.85-0.662c-0.375-0.555-0.562-1.582-0.562-3.082
		v-5.836h-1.746V60.07c1.039-0.422,1.879-1.086,2.52-1.992c0.188-0.266,0.365-0.531,0.533-0.797s0.289-0.434,0.363-0.504
		S151.873,56.671,151.951,56.671z"/>
	<path fill="#CCCCCC" d="M156.263,69.562c1.367-0.109,2.051-0.824,2.051-2.145v-10.91c-0.195-0.289-0.715-0.609-1.559-0.961
		c-0.195-0.078-0.344-0.125-0.445-0.141v-0.41l3.352-0.891l0.844-0.082v7.125c0.633-0.617,1.156-1.035,1.57-1.254
		c0.75-0.398,1.447-0.598,2.092-0.598s1.186,0.08,1.623,0.24s0.816,0.408,1.137,0.744c0.695,0.727,1.043,1.797,1.043,3.211v4.066
		c0,1.219,0.594,1.887,1.781,2.004l-0.023,0.586h-5.766c-0.016-0.086-0.023-0.188-0.023-0.305v-0.281
		c0.312-0.141,0.586-0.236,0.82-0.287s0.426-0.127,0.574-0.229c0.305-0.188,0.457-0.656,0.457-1.406v-4.254
		c0-1.336-0.402-2.207-1.207-2.613c-0.289-0.141-0.637-0.211-1.043-0.211c-1.016,0-2.027,0.523-3.035,1.57v5.285
		c0,0.703,0.16,1.221,0.48,1.553s0.84,0.529,1.559,0.592l-0.012,0.363v0.223h-6.246c-0.016-0.086-0.023-0.188-0.023-0.305V69.562z"
		/>
	<path fill="#CCCCCC" d="M178.884,67.886l0.34,0.328c-0.289,0.68-0.852,1.219-1.688,1.617c-0.766,0.367-1.541,0.551-2.326,0.551
		s-1.492-0.133-2.121-0.398s-1.174-0.641-1.635-1.125c-0.969-1.016-1.453-2.332-1.453-3.949c0-1.625,0.523-2.98,1.57-4.066
		c0.984-1.031,2.184-1.547,3.598-1.547c1.125,0,2.066,0.336,2.824,1.008c0.75,0.656,1.203,1.516,1.359,2.578
		c0.086,0.398,0.129,0.73,0.129,0.996v0.105h-7.406c-0.008,0.062-0.012,0.121-0.012,0.176s0,0.109,0,0.164
		c0,1.461,0.391,2.578,1.172,3.352c0.711,0.703,1.596,1.055,2.654,1.055S177.946,68.449,178.884,67.886z M177.161,62.997
		c-0.117-1.944-0.871-2.916-2.262-2.916c-0.758,0-1.383,0.31-1.875,0.928c-0.461,0.566-0.75,1.303-0.867,2.212h4.137
		C176.661,63.222,176.95,63.147,177.161,62.997z"/>
	<path fill="#CCCCCC" d="M41.904,104.501c0.305-0.176,0.562-0.387,0.773-0.633s0.316-0.492,0.316-0.738s-0.044-0.524-0.132-0.835
		s-0.199-0.665-0.334-1.063s-0.287-0.82-0.457-1.266s-0.331-0.873-0.483-1.283c-0.398-1.008-0.639-1.641-0.721-1.898h-7.928
		c-0.059,0.164-0.149,0.398-0.272,0.703s-0.261,0.653-0.413,1.046s-0.308,0.806-0.466,1.239s-0.302,0.855-0.431,1.266
		c-0.305,0.914-0.457,1.567-0.457,1.96s0.103,0.703,0.308,0.932s0.46,0.413,0.765,0.554c0.398,0.199,1.16,0.416,2.285,0.65v1.002
		h-8.297v-0.914c0.234-0.199,0.478-0.349,0.729-0.448s0.501-0.202,0.747-0.308c0.609-0.258,1.025-0.598,1.248-1.02
		s0.396-0.797,0.519-1.125s0.249-0.656,0.378-0.984l6.574-16.84c0.047-0.117,0.073-0.249,0.079-0.396s0.015-0.29,0.026-0.431
		c0.035-0.387,0.111-0.656,0.229-0.809c1.102,0,2.016,0.275,2.742,0.826l8.068,19.354c0.281,0.656,0.709,1.137,1.283,1.441
		c0.27,0.129,0.551,0.243,0.844,0.343s0.598,0.231,0.914,0.396l-0.035,0.914h-10.23l-0.035-0.914
		C40.979,104.917,41.6,104.677,41.904,104.501z M40.217,95.238l-3.463-8.648l-3.217,8.648H40.217z"/>
	<path fill="#CCCCCC" d="M55.26,90.333l0.088,0.949c-1.137,0.305-1.799,0.574-1.986,0.809s-0.281,0.434-0.281,0.598
		s0.029,0.352,0.088,0.562l3.586,8.842l3.023-7.365c0.328-0.832,0.483-1.459,0.466-1.881s-0.223-0.741-0.615-0.958
		s-0.94-0.407-1.644-0.571c-0.012-0.059-0.018-0.123-0.018-0.193v-0.615c0-0.082,0.006-0.141,0.018-0.176h6.539
		c0.023,0.094,0.035,0.182,0.035,0.264v0.633c-0.211,0.129-0.434,0.237-0.668,0.325s-0.48,0.208-0.738,0.36
		c-0.586,0.363-1.066,0.967-1.441,1.811l-5.449,12.621c-0.141,0.07-0.322,0.105-0.545,0.105s-0.393-0.035-0.51-0.105L49.828,93.41
		c-0.363-0.867-0.68-1.38-0.949-1.538s-0.513-0.264-0.729-0.316s-0.483-0.155-0.8-0.308v-0.914H55.26z"/>
	<path fill="#CCCCCC" d="M74.708,103.886c-1.641,1.746-3.469,2.619-5.484,2.619c-1.793,0-3.029-0.656-3.709-1.969
		c-0.223-0.434-0.334-0.964-0.334-1.591s0.164-1.204,0.492-1.731s0.759-0.987,1.292-1.38s1.14-0.729,1.819-1.011
		s1.371-0.527,2.074-0.738s1.386-0.393,2.048-0.545s1.245-0.293,1.749-0.422v-1.67c0-1.359-0.149-2.297-0.448-2.812
		s-0.659-0.888-1.081-1.116s-0.858-0.343-1.31-0.343s-0.835,0.035-1.151,0.105s-0.627,0.17-0.932,0.299
		c-0.727,0.316-1.09,0.709-1.09,1.178c0,0.188,0.07,0.41,0.211,0.668c0.258,0.504,0.387,0.92,0.387,1.248s-0.144,0.647-0.431,0.958
		s-0.63,0.466-1.028,0.466s-0.718-0.062-0.958-0.185s-0.442-0.284-0.606-0.483c-0.328-0.422-0.492-0.908-0.492-1.459
		s0.108-1.02,0.325-1.406s0.501-0.729,0.853-1.028s0.756-0.554,1.213-0.765s0.926-0.381,1.406-0.51
		c0.902-0.258,1.898-0.387,2.988-0.387s2.01,0.141,2.76,0.422s1.324,0.706,1.723,1.274s0.656,1.274,0.773,2.118
		s0.176,1.828,0.176,2.953l-0.105,3.814c0,2.637,0.275,3.955,0.826,3.955c0.398,0,0.914-0.404,1.547-1.213l0.738,0.791
		c-0.539,0.879-0.979,1.459-1.318,1.74c-0.645,0.516-1.368,0.773-2.171,0.773s-1.45-0.243-1.942-0.729S74.755,104.66,74.708,103.886
		z M70.823,104.519c1.242,0,2.52-0.627,3.832-1.881v-4.482c-0.305,0.105-0.662,0.223-1.072,0.352s-0.838,0.278-1.283,0.448
		s-0.888,0.36-1.327,0.571s-0.829,0.451-1.169,0.721c-0.773,0.621-1.16,1.292-1.16,2.013s0.188,1.277,0.562,1.67
		S70.12,104.519,70.823,104.519z"/>
	<path fill="#CCCCCC" d="M92.323,91.775c-1.477,0-3.035,0.879-4.676,2.637v7.84c0,1.465,0.592,2.391,1.775,2.777
		c0.387,0.117,0.826,0.199,1.318,0.246l-0.035,0.879h-9.053c-0.012-0.035-0.018-0.094-0.018-0.176v-0.598
		c0-0.059,0.006-0.117,0.018-0.176c0.996-0.234,1.629-0.439,1.898-0.615c0.551-0.363,0.826-0.926,0.826-1.688v-9.527
		c-0.27-0.533-1.201-1.03-2.795-1.493l0.053-0.604l4.799-1.208h1.072l0.193,2.812c1.008-1.359,2.326-2.279,3.955-2.76
		c0.562-0.164,1.148-0.246,1.758-0.246c1.688,0,3.003,0.472,3.946,1.415s1.456,2.388,1.538,4.333
		c0.035,0.762,0.053,1.529,0.053,2.303v3.92c0,1.359,0.176,2.215,0.527,2.566c0.199,0.188,0.463,0.325,0.791,0.413
		s0.738,0.214,1.23,0.378c0.012,0.059,0.018,0.117,0.018,0.176v0.211l-0.018,0.387v0.176h-8.666
		c-0.023-0.129-0.035-0.281-0.035-0.457v-0.422c0.223-0.082,0.483-0.158,0.782-0.229s0.589-0.164,0.87-0.281
		c0.645-0.281,1.02-0.691,1.125-1.23c0.059-0.328,0.088-0.779,0.088-1.354v-3.92c0-2.309-0.123-3.8-0.369-4.474
		s-0.595-1.178-1.046-1.512S93.155,91.775,92.323,91.775z"/>
	<path fill="#CCCCCC" d="M106.16,85.939c0.27,0,0.404,0.229,0.404,0.686v3.709h4.412v1.477H106.6v8.807
		c0,1.699,0.091,2.73,0.272,3.094s0.428,0.606,0.738,0.729s0.823,0.185,1.538,0.185s1.459-0.129,2.232-0.387l0.141,1.283
		c-1.254,0.645-2.446,0.967-3.577,0.967s-1.969-0.103-2.514-0.308s-0.97-0.536-1.274-0.993c-0.562-0.832-0.844-2.373-0.844-4.623
		V91.81h-2.619v-0.773c1.559-0.633,2.818-1.629,3.779-2.988c0.281-0.398,0.548-0.797,0.8-1.195s0.434-0.65,0.545-0.756
		S106.043,85.939,106.16,85.939z"/>
	<path fill="#CCCCCC" d="M111.35,99.07v-2.25h10.582v2.25H111.35z"/>
	<path fill="#CCCCCC" d="M150.688,94.113l0.035,0.914c-0.363,0.141-0.721,0.272-1.072,0.396s-0.668,0.284-0.949,0.483
		c-0.621,0.445-0.932,1.143-0.932,2.092v6.469c-2.73,1.418-5.754,2.127-9.07,2.127c-4.02,0-7.242-1.066-9.668-3.199
		c-2.438-2.145-3.657-4.969-3.657-8.473c0-2.367,0.645-4.5,1.934-6.398c1.219-1.77,2.907-3.17,5.063-4.201
		c2.133-1.008,4.459-1.512,6.979-1.512c2.508,0,5.08,0.469,7.717,1.406l0.527,5.309c-0.375,0.035-0.715,0.053-1.02,0.053
		c-0.234-0.199-0.475-0.539-0.721-1.02c-0.527-1.008-0.861-1.594-1.002-1.758c-1.5-1.758-3.486-2.637-5.959-2.637
		c-2.707,0-4.938,0.964-6.689,2.892s-2.627,4.333-2.627,7.216c0,3.117,0.873,5.689,2.619,7.717c1.746,2.039,4.014,3.059,6.803,3.059
		c1.898,0,3.463-0.381,4.693-1.143c0.141-1.195,0.211-2.373,0.211-3.533c0-1.723-0.164-3.041-0.492-3.955
		c-0.176-0.48-0.668-0.809-1.477-0.984c-0.316-0.07-0.643-0.129-0.977-0.176s-0.617-0.123-0.852-0.229V94.57
		c0-0.164,0.012-0.316,0.035-0.457H150.688z"/>
	<path fill="#CCCCCC" d="M161.509,103.886c-1.641,1.746-3.469,2.619-5.484,2.619c-1.793,0-3.029-0.656-3.709-1.969
		c-0.223-0.434-0.334-0.964-0.334-1.591s0.164-1.204,0.492-1.731s0.759-0.987,1.292-1.38s1.14-0.729,1.819-1.011
		s1.371-0.527,2.074-0.738s1.386-0.393,2.048-0.545s1.245-0.293,1.749-0.422v-1.67c0-1.359-0.149-2.297-0.448-2.812
		s-0.659-0.888-1.081-1.116s-0.858-0.343-1.31-0.343s-0.835,0.035-1.151,0.105s-0.627,0.17-0.932,0.299
		c-0.727,0.316-1.09,0.709-1.09,1.178c0,0.188,0.07,0.41,0.211,0.668c0.258,0.504,0.387,0.92,0.387,1.248s-0.144,0.647-0.431,0.958
		s-0.63,0.466-1.028,0.466s-0.718-0.062-0.958-0.185s-0.442-0.284-0.606-0.483c-0.328-0.422-0.492-0.908-0.492-1.459
		s0.108-1.02,0.325-1.406s0.501-0.729,0.853-1.028s0.756-0.554,1.213-0.765s0.926-0.381,1.406-0.51
		c0.902-0.258,1.898-0.387,2.988-0.387s2.01,0.141,2.76,0.422s1.324,0.706,1.723,1.274s0.656,1.274,0.773,2.118
		s0.176,1.828,0.176,2.953l-0.105,3.814c0,2.637,0.275,3.955,0.826,3.955c0.398,0,0.914-0.404,1.547-1.213l0.738,0.791
		c-0.539,0.879-0.979,1.459-1.318,1.74c-0.645,0.516-1.368,0.773-2.171,0.773s-1.45-0.243-1.942-0.729
		S161.556,104.66,161.509,103.886z M157.624,104.519c1.242,0,2.52-0.627,3.832-1.881v-4.482c-0.305,0.105-0.662,0.223-1.072,0.352
		s-0.838,0.278-1.283,0.448s-0.888,0.36-1.327,0.571s-0.829,0.451-1.169,0.721c-0.773,0.621-1.16,1.292-1.16,2.013
		s0.188,1.277,0.562,1.67S156.921,104.519,157.624,104.519z"/>
	<path fill="#CCCCCC" d="M171.144,93.427c-0.328-0.551-1.248-1.031-2.76-1.441l0.035-0.615l4.676-1.336h1.002l0.281,3.234
		c0.973-1.77,2.045-2.824,3.217-3.164c0.398-0.105,0.8-0.158,1.204-0.158s0.759,0.059,1.063,0.176s0.568,0.27,0.791,0.457
		c0.469,0.398,0.703,0.832,0.703,1.301c0,0.363-0.094,0.715-0.281,1.055c-0.352,0.691-0.741,1.037-1.169,1.037
		s-0.747-0.094-0.958-0.281s-0.393-0.393-0.545-0.615s-0.308-0.428-0.466-0.615s-0.39-0.281-0.694-0.281s-0.589,0.085-0.853,0.255
		s-0.507,0.39-0.729,0.659s-0.434,0.574-0.633,0.914s-0.398,0.674-0.598,1.002v6.539c0,1.09,0.05,1.822,0.149,2.197
		s0.27,0.636,0.51,0.782s0.521,0.258,0.844,0.334s0.659,0.138,1.011,0.185s0.662,0.117,0.932,0.211l-0.018,0.545v0.334h-9.422
		c-0.012-0.047-0.018-0.117-0.018-0.211v-0.615c0-0.059,0.006-0.1,0.018-0.123c0.398-0.117,0.765-0.211,1.099-0.281
		s0.618-0.188,0.853-0.352c0.504-0.34,0.756-1.072,0.756-2.197V93.427z"/>
	<path fill="#CCCCCC" d="M194.426,103.64c-1.699,1.91-3.551,2.865-5.555,2.865c-2.039,0-3.732-0.697-5.08-2.092
		c-1.395-1.441-2.092-3.287-2.092-5.537c0-2.637,0.776-4.787,2.329-6.451s3.495-2.496,5.827-2.496c0.809,0,1.57,0.129,2.285,0.387
		s1.447,0.562,2.197,0.914V85.5c-0.305-0.48-1.301-1.014-2.988-1.6l0.035-0.615l4.957-1.195l1.266-0.123v20.689
		c0,0.703,0.346,1.225,1.037,1.564c0.527,0.27,1.131,0.404,1.811,0.404v0.967l-4.693,0.773h-1.178L194.426,103.64z M194.338,102.251
		v-5.062c0-1.676-0.24-2.906-0.721-3.691c-0.504-0.809-1.266-1.43-2.285-1.863c-0.539-0.234-1.131-0.352-1.775-0.352
		s-1.257,0.179-1.837,0.536s-1.075,0.835-1.485,1.433c-0.844,1.254-1.266,2.76-1.266,4.518s0.428,3.264,1.283,4.518
		c0.973,1.418,2.294,2.127,3.964,2.127S193.26,103.693,194.338,102.251z"/>
	<path fill="#CCCCCC" d="M214.227,102.761l0.51,0.492c-0.434,1.02-1.277,1.828-2.531,2.426c-1.148,0.551-2.312,0.826-3.489,0.826
		s-2.238-0.199-3.182-0.598s-1.761-0.961-2.452-1.688c-1.453-1.523-2.18-3.498-2.18-5.924c0-2.438,0.785-4.471,2.355-6.1
		c1.477-1.547,3.275-2.32,5.396-2.32c1.688,0,3.1,0.504,4.236,1.512c1.125,0.984,1.805,2.273,2.039,3.867
		c0.129,0.598,0.193,1.096,0.193,1.494v0.158h-11.109c-0.012,0.094-0.018,0.182-0.018,0.264s0,0.164,0,0.246
		c0,2.191,0.586,3.867,1.758,5.027c1.066,1.055,2.394,1.582,3.981,1.582S212.82,103.605,214.227,102.761z M211.643,95.428
		c-0.176-2.916-1.307-4.374-3.393-4.374c-1.137,0-2.074,0.464-2.812,1.393c-0.691,0.848-1.125,1.955-1.301,3.318h6.205
		C210.893,95.765,211.326,95.653,211.643,95.428z"/>
	<path fill="#CCCCCC" d="M217.33,100.951c0.445-0.059,0.756-0.088,0.932-0.088c0.41,2.039,1.271,3.393,2.584,4.061
		c0.48,0.234,0.984,0.352,1.512,0.352s0.973-0.056,1.336-0.167s0.68-0.267,0.949-0.466c0.574-0.422,0.861-0.935,0.861-1.538
		s-0.152-1.081-0.457-1.433s-0.718-0.688-1.239-1.011s-1.131-0.656-1.828-1.002s-1.45-0.771-2.259-1.274
		c-1.77-1.113-2.654-2.531-2.654-4.254c0-1.348,0.504-2.402,1.512-3.164c0.949-0.727,2.18-1.09,3.691-1.09
		c1.793,0,3.387,0.428,4.781,1.283l0.105,3.902c-0.129,0.012-0.264,0.018-0.404,0.018h-0.422c-0.773-2.684-2.162-4.025-4.166-4.025
		c-0.715,0-1.292,0.176-1.731,0.527s-0.659,0.823-0.659,1.415s0.149,1.069,0.448,1.433s0.677,0.7,1.134,1.011
		s0.964,0.604,1.521,0.879s1.122,0.568,1.696,0.879s1.099,0.639,1.573,0.984s0.87,0.706,1.187,1.081
		c0.633,0.773,0.949,1.608,0.949,2.505s-0.141,1.626-0.422,2.188s-0.674,1.037-1.178,1.424c-0.996,0.75-2.332,1.125-4.008,1.125
		c-2.227,0-4.008-0.422-5.344-1.266V100.951z"/>
</g>
<g>
	<rect y="136" fill="none" width="256" height="44"/>
	<path fill="#333333" d="M70.705,137.343h1.992v14.041h6.889v1.704h-8.881V137.343z"/>
	<path fill="#333333" d="M85.584,145.144c0-5.041,2.76-8.089,6.721-8.089s6.745,3.072,6.745,8.089c0,5.064-2.784,8.232-6.745,8.232
		S85.584,150.208,85.584,145.144z M96.961,145.144c0-3.913-1.848-6.337-4.656-6.337s-4.656,2.424-4.656,6.337
		c0,3.936,1.848,6.48,4.656,6.48S96.961,149.079,96.961,145.144z"/>
	<path fill="#333333" d="M113.981,148.287h-5.736l-1.512,4.801h-2.041l5.329-15.745h2.256l5.329,15.745h-2.136L113.981,148.287z
		 M113.477,146.68l-0.744-2.4c-0.576-1.752-1.08-3.48-1.584-5.305h-0.096c-0.48,1.824-0.984,3.553-1.56,5.305l-0.744,2.4H113.477z"
		/>
	<path fill="#333333" d="M124.65,137.343h3.937c4.849,0,7.44,2.808,7.44,7.801c0,5.016-2.592,7.944-7.345,7.944h-4.032V137.343z
		 M128.443,151.456c3.672,0,5.52-2.328,5.52-6.312c0-3.961-1.848-6.169-5.52-6.169h-1.8v12.481H128.443z"/>
	<path fill="#333333" d="M144.016,137.343h1.992v15.745h-1.992V137.343z"/>
	<path fill="#333333" d="M154.756,137.343h2.064l5.688,9.889l1.704,3.265h0.096c-0.096-1.585-0.24-3.36-0.24-5.017v-8.137h1.896
		v15.745H163.9l-5.712-9.913l-1.704-3.24h-0.097c0.12,1.584,0.265,3.265,0.265,4.921v8.232h-1.896V137.343z"/>
	<path fill="#333333" d="M181.144,137.055c2.16,0,3.6,0.984,4.512,1.944l-1.128,1.271c-0.792-0.84-1.776-1.464-3.36-1.464
		c-3.168,0-5.208,2.448-5.208,6.36c0,3.961,1.872,6.457,5.232,6.457c1.128,0,2.208-0.36,2.832-0.937v-4.104h-3.336v-1.656h5.16
		v6.625c-1.032,1.056-2.761,1.824-4.872,1.824c-4.129,0-7.081-3.024-7.081-8.161C173.895,140.15,176.942,137.055,181.144,137.055z"
		/>
</g>
<g>
</g>
<g>
</g>
<g>
</g>
<g>
</g>
<g>
</g>
<g>
</g>
<g>
</g>
<g>
</g>
<g>
</g>
<g>
</g>
<g>
</g>
<g>
</g>
<g>
</g>
<g>
</g>
<g>
</g>
</svg>
